<svg xmlns="http://www.w3.org/2000/svg" xmlns:xlink= "http://www.w3.org/1999/xlink" viewBox="0,0,600,600" width="600" height="600"><g transform-origin="center" class="ctx-final-svg" style="background: red;"><g transform="translate(120, 0)" transform-origin="180.00000000000003px 300px" class="ctx-painting-scaled"><g transform="translate(0, 0)" transform-origin="180.00000000000003px 300px" class="ctx-painting"><path d="M0,91.2L0,0L362.1492537313434,1.2L363.22388059701495,92.4Z" class="line-sky" style="fill: rgb(161, 180, 213);"></path><path d="M-1.074626865671642,91.2L363.22388059701495,90L362.1492537313434,510L-1.074626865671642,510Z" class="line-floor" style="fill: rgb(148, 171, 158);"></path><path d="M275.10447761194035,98.4L274.02985074626866,82.80000000000001L303.044776119403,68.4L333.134328358209,76.8L333.134328358209,91.2L303.044776119403,97.2Z" class="line-house" style="fill: rgb(156, 115, 114);"></path><path d="M1.074626865671642,92.4L0,24L58.029850746268664,40.800000000000004L62.32835820895524,54L72.00000000000001,56.4L77.37313432835822,66L88.11940298507464,73.2L87.044776119403,76.8L98.86567164179107,79.2L99.9402985074627,82.80000000000001L109.61194029850748,85.19999999999999L111.76119402985076,91.2Z" class="line-mountain" style="fill: rgb(83, 71, 71);"></path><path d="M78.98507462686568,503.59999999999997C78.44776119402987,502.3999999999999,76.29850746268657,502,71.28358208955225,493.2C66.26865671641792,484.3999999999999,58.388059701492544,467.2,51.044776119403,449.2C43.70149253731344,431.2,36.89552238805971,412.40000000000003,31.701492537313438,393.8C26.50746268656717,375.2,22.925373134328364,356.8,20.059701492537318,338.99999999999994C17.194029850746272,321.2,15.044776119402988,304,15.76119402985075,287C16.477611940298512,270,20.059701492537318,253.20000000000002,24.358208955223887,242.80000000000004C28.656716417910456,232.4,33.671641791044784,228.4,39.04477611940299,225.79999999999998C44.417910447761194,223.20000000000002,50.149253731343286,222,57.13432835820896,218.79999999999998C64.11940298507464,215.6,72.35820895522389,210.4,82.02985074626868,205.20000000000002C91.70149253731346,200,102.80597014925375,194.79999999999998,110.32835820895524,190.20000000000002C117.85074626865674,185.6,121.79104477611942,181.6,124.29850746268659,178.6C126.80597014925375,175.6,127.88059701492539,173.6,128.95522388059703,169.20000000000002C130.0298507462687,164.79999999999998,131.10447761194033,158,130.56716417910448,152.20000000000002C130.0298507462687,146.4,127.88059701492539,141.6,126.089552238806,138.20000000000002C124.29850746268659,134.8,122.86567164179105,132.8,121.79104477611942,130.4C120.71641791044777,128,120.00000000000001,125.2,118.20895522388061,119.8C116.4179104477612,114.39999999999999,113.55223880597016,106.39999999999999,113.19402985074628,101.8C112.83582089552242,97.2,114.98507462686568,96,117.13432835820896,95.80000000000001C119.28358208955224,95.60000000000001,121.43283582089555,96.39999999999999,124.11940298507464,91C126.80597014925375,85.60000000000001,130.02985074626866,74,138.98507462686567,66.60000000000001C147.9402985074627,59.199999999999996,162.6268656716418,56,174.26865671641792,54.99999999999999C185.91044776119406,54,194.5074626865672,55.199999999999996,202.38805970149258,61.4C210.26865671641795,67.60000000000001,217.43283582089558,78.8,222.26865671641795,84.6C227.10447761194033,90.39999999999999,229.6119402985075,90.8,231.40298507462686,92.2C233.19402985074632,93.60000000000001,234.26865671641795,96,233.91044776119406,101C233.55223880597018,106,231.7611940298508,113.60000000000001,230.1492537313433,118.80000000000001C228.53731343283587,124,227.10447761194033,126.8,225.49253731343288,129C223.88059701492543,131.20000000000002,222.08955223880602,132.79999999999998,220.47761194029852,139.6C218.86567164179107,146.4,217.43283582089555,158.39999999999998,218.32835820895525,167.99999999999997C219.22388059701495,177.6,222.4477611940299,184.79999999999998,230.68656716417914,192C238.9253731343284,199.20000000000002,252.179104477612,206.4,263.64179104477614,210.80000000000004C275.10447761194035,215.20000000000002,284.7761194029851,216.79999999999998,291.76119402985074,218.79999999999998C298.7462686567165,220.79999999999998,303.044776119403,223.20000000000002,308.2388059701493,229.39999999999998C313.4328358208956,235.6,319.52238805970154,245.6,323.6417910447762,255.20000000000002C327.76119402985086,264.8,329.9104477611941,274,331.88059701492546,283.4C333.8507462686568,292.8,335.6417910447762,302.40000000000003,335.10447761194035,309.40000000000003C334.56716417910457,316.40000000000003,331.70149253731347,320.8,334.38805970149264,332.8C337.0746268656717,344.8,345.31343283582095,364.40000000000003,349.97014925373134,379.2C354.62686567164184,394,355.7014925373135,404,356.77611940298516,415C357.8507462686568,426,358.9253731343285,438,359.2835820895523,447.59999999999997C359.6417910447762,457.2,359.2835820895523,464.40000000000003,359.10447761194035,470.8C358.9253731343285,477.2,358.9253731343285,482.8,356.59701492537323,486.2C354.268656716418,489.59999999999997,349.61194029850753,490.79999999999995,344.59701492537323,491.99999999999994C339.58208955223887,493.2,334.20895522388065,494.3999999999999,328.83582089552243,495.79999999999995C323.4626865671642,497.2,318.089552238806,498.79999999999995,311.64179104477614,499C305.1940298507463,499.2,297.6716417910448,498,293.3731343283582,498.2C289.0746268656717,498.3999999999999,288.00000000000006,500,287.4626865671642,502.2C286.9253731343284,504.3999999999999,286.9253731343284,507.2,252.00000000000003,508.40000000000003C217.0746268656717,509.59999999999997,147.22388059701495,509.2,112.83582089552242,508C78.44776119402987,506.8,79.5223880597015,504.79999999999995,78.98507462686568,503.59999999999997" class="line-body" style="fill: rgb(153, 85, 43);"></path><path d="M133.97014925373136,78.8C131.46268656716418,83.2,130.74626865671644,87.2,129.49253731343288,90C128.2388059701493,92.8,126.44776119402987,94.39999999999999,125.01492537313436,94.8C123.58208955223883,95.2,122.50746268656718,94.39999999999999,120.8955223880597,91.8C119.28358208955224,89.2,117.13432835820898,84.8,115.16417910447763,77.4C113.19402985074629,70,111.40298507462688,59.6,111.04477611940301,50.400000000000006C110.68656716417912,41.2,111.76119402985076,33.2,114.26865671641794,27C116.7761194029851,20.8,120.71641791044779,16.400000000000002,127.16417910447763,12.600000000000001C133.6119402985075,8.799999999999999,142.56716417910448,5.6000000000000005,149.55223880597018,4.2C156.53731343283584,2.8000000000000003,161.55223880597018,3.1999999999999997,168.53731343283584,3.6C175.5223880597015,4,184.47761194029854,4.3999999999999995,190.38805970149258,6.6000000000000005C196.29850746268662,8.799999999999999,199.16417910447763,12.799999999999999,202.38805970149258,17.599999999999998C205.6119402985075,22.400000000000002,209.19402985074632,28,212.95522388059703,30.000000000000004C216.7164179104478,32,220.6567164179105,30.400000000000002,224.41791044776122,30.400000000000002C228.179104477612,30.400000000000002,231.76119402985077,32,234.44776119402988,34.800000000000004C237.134328358209,37.6,238.9253731343284,41.6,239.46268656716424,45.800000000000004C240.00000000000003,50,239.28358208955228,54.400000000000006,238.2089552238806,58.800000000000004C237.134328358209,63.20000000000001,235.70149253731347,67.60000000000001,234.26865671641795,72.2C232.8358208955224,76.8,231.4029850746269,81.6,229.97014925373136,85.19999999999999C228.53731343283587,88.8,227.10447761194033,91.19999999999999,225.85074626865676,92.39999999999999C224.5970149253732,93.59999999999998,223.52238805970157,93.59999999999998,222.08955223880602,91.2C220.6567164179105,88.8,218.8656716417911,84,216.35820895522394,79.2C213.85074626865676,74.39999999999999,210.6268656716418,69.60000000000001,206.32835820895525,66.2C202.0298507462687,62.800000000000004,196.6567164179105,60.800000000000004,190.02985074626872,60.4C183.4029850746269,60,175.5223880597015,61.199999999999996,169.43283582089555,62C163.34328358208958,62.800000000000004,159.044776119403,63.199999999999996,154.74626865671644,64C150.44776119402988,64.8,146.1492537313433,66,144.53731343283584,66.2C142.9253731343284,66.39999999999999,144.00000000000003,65.60000000000001,142.38805970149255,67.6C140.77611940298507,69.60000000000001,136.47761194029852,74.39999999999999,133.97014925373136,78.8" class="line-hair"></path><path d="M149.19402985074632,89.19999999999999C151.16417910447765,88.8,152.95522388059703,88.8,154.56716417910448,89.2C156.17910447761196,89.60000000000001,157.6119402985075,90.39999999999999,158.86567164179107,91.2C160.11940298507466,92,161.1940298507463,92.8,161.37313432835822,93.59999999999998C161.55223880597018,94.39999999999999,160.8358208955224,95.2,159.76119402985077,95.80000000000001C158.68656716417914,96.39999999999999,157.2537313432836,96.8,155.46268656716418,97C153.67164179104478,97.2,151.5223880597015,97.2,149.7313432835821,96.39999999999999C147.9402985074627,95.60000000000001,146.5074626865672,94,145.43283582089555,93C144.3582089552239,92,143.64179104477614,91.60000000000001,144.3582089552239,91C145.07462686567166,90.39999999999999,147.22388059701495,89.60000000000001,149.19402985074632,89.19999999999999" class="line-eye1" style="fill: rgb(0, 0, 0); stroke: rgb(0, 0, 0);"></path><path d="M192.00000000000003,92.40000000000002C192.7164179104478,91.60000000000001,194.1492537313433,90.8,196.29850746268656,90C198.44776119402988,89.2,201.31343283582092,88.39999999999999,203.46268656716418,88C205.6119402985075,87.59999999999998,207.044776119403,87.59999999999998,207.9402985074627,87.8C208.8358208955224,88,209.19402985074632,88.39999999999999,209.01492537313436,89.19999999999999C208.8358208955224,90,208.11940298507466,91.2,207.5820895522388,92.2C207.044776119403,93.2,206.68656716417914,94,206.1492537313433,94.80000000000001C205.6119402985075,95.60000000000001,204.89552238805973,96.39999999999999,203.10447761194033,96.80000000000001C201.31343283582092,97.2,198.44776119402988,97.2,196.65671641791047,97.2C194.86567164179107,97.2,194.1492537313433,97.2,193.43283582089555,96.8C192.7164179104478,96.39999999999999,192.00000000000003,95.60000000000001,191.64179104477617,94.8C191.28358208955228,94,191.28358208955228,93.2,192.00000000000003,92.40000000000002" class="line-eye2" style="fill: rgb(0, 0, 0); stroke: rgb(0, 0, 0);"></path><path d="M91.34328358208957,279.6L91.5223880597015,283.40000000000003C91.70149253731346,287.2,92.05970149253733,294.8,92.05970149253733,300.59999999999997C92.05970149253733,306.40000000000003,91.70149253731346,310.40000000000003,91.88059701492539,315.2C92.05970149253733,320.00000000000006,92.7761194029851,325.6000000000001,96.53731343283584,330.8C100.29850746268659,336,107.10447761194031,340.8,112.29850746268659,344.59999999999997C117.49253731343286,348.3999999999999,121.07462686567168,351.2,125.01492537313436,355.40000000000003C128.95522388059703,359.59999999999997,133.2537313432836,365.2,137.37313432835825,370.40000000000003C141.49253731343288,375.59999999999997,145.43283582089555,380.40000000000003,149.19402985074632,384.8C152.95522388059706,389.2,156.53731343283584,393.20000000000005,158.1492537313433,396C159.76119402985077,398.8,159.4029850746269,400.40000000000003,157.07462686567166,401C154.74626865671644,401.59999999999997,150.44776119402988,401.2,145.43283582089555,401.2C140.41791044776122,401.2,134.6865671641791,401.59999999999997,128.95522388059703,402.40000000000003C123.22388059701494,403.2,117.49253731343283,404.40000000000003,111.40298507462687,406C105.3134328358209,407.6000000000001,98.86567164179105,409.6000000000001,93.3134328358209,411.40000000000003C87.76119402985076,413.2,83.10447761194031,414.8,78.98507462686568,414.59999999999997C74.86567164179105,414.40000000000003,71.28358208955224,412.40000000000003,68.05970149253731,409.8C64.83582089552239,407.20000000000005,61.97014925373136,404,60.53731343283582,400.8C59.10447761194032,397.59999999999997,59.10447761194032,394.40000000000003,58.388059701492544,392.2C57.671641791044784,390,56.23880597014926,388.8,54.08955223880597,387.20000000000005C51.94029850746269,385.6000000000001,49.074626865671654,383.6000000000001,48.35820895522389,381C47.64179104477612,378.40000000000003,49.074626865671654,375.2,50.68656716417911,373.79999999999995C52.29850746268658,372.40000000000003,54.08955223880597,372.8,53.37313432835821,371.59999999999997C52.65671641791045,370.40000000000003,49.43283582089553,367.59999999999997,46.92537313432836,363.2C44.417910447761194,358.8,42.6268656716418,352.79999999999995,43.16417910447762,349.79999999999995C43.70149253731344,346.79999999999995,46.56716417910449,346.79999999999995,49.25373134328359,347C51.9402985074627,347.2,54.44776119402986,347.59999999999997,58.74626865671643,348.2C63.044776119403,348.8,69.13432835820898,349.59999999999997,71.28358208955225,349C73.43283582089553,348.3999999999999,71.64179104477614,346.3999999999999,69.13432835820898,344.59999999999997C66.62686567164181,342.79999999999995,63.40298507462688,341.2,60.716417910447774,338.59999999999997C58.029850746268664,336,55.88059701492538,332.40000000000003,56.23880597014926,329.8C56.59701492537314,327.2,59.46268656716419,325.59999999999997,62.14925373134329,325C64.8358208955224,324.40000000000003,67.34328358208957,324.8,72.00000000000001,325.8C76.65671641791046,326.8,83.4626865671642,328.40000000000003,87.94029850746271,329.8C92.4179104477612,331.2,94.5671641791045,332.40000000000003,106.38805970149254,343.6000000000001C118.20895522388061,354.8,139.70149253731344,376,150.98507462686567,386.8C162.26865671641792,397.6000000000001,163.34328358208958,398,167.64179104477614,398.8C171.9402985074627,399.6000000000001,179.46268656716424,400.8,184.6567164179105,399.59999999999997C189.85074626865676,398.40000000000003,192.7164179104478,394.8,195.4029850746269,392.59999999999997C198.08955223880602,390.40000000000003,200.59701492537317,389.59999999999997,204.00000000000003,388.59999999999997C207.4029850746269,387.59999999999997,211.70149253731347,386.40000000000003,215.28358208955228,385C218.8656716417911,383.59999999999997,221.7313432835821,382,223.5223880597015,381C225.31343283582092,380,226.0298507462687,379.59999999999997,226.74626865671644,378.2C227.46268656716418,376.8,228.17910447761196,374.40000000000003,229.43283582089552,371.59999999999997C230.68656716417914,368.8,232.47761194029852,365.59999999999997,233.91044776119406,363.40000000000003C235.34328358208958,361.2,236.41791044776122,360,237.49253731343285,358.59999999999997C238.56716417910454,357.2,239.64179104477617,355.59999999999997,240.35820895522394,353.8C241.0746268656717,352,241.43283582089558,350,242.14925373134335,348.59999999999997C242.8656716417911,347.2,243.94029850746276,346.3999999999999,245.37313432835825,346C246.80597014925377,345.59999999999997,248.59701492537317,345.59999999999997,250.74626865671644,344.99999999999994C252.89552238805973,344.3999999999999,255.4029850746269,343.2,257.1940298507463,342.2C258.9850746268657,341.2,260.0597014925374,340.3999999999999,261.4925373134329,339.59999999999997C262.92537313432837,338.8,264.7164179104478,338,265.97014925373134,337.6C267.22388059701495,337.20000000000005,267.9402985074627,337.20000000000005,268.6567164179105,337.8C269.3731343283583,338.40000000000003,270.089552238806,339.59999999999997,270.9850746268657,342.2C271.8805970149254,344.79999999999995,272.95522388059703,348.79999999999995,274.3880597014925,351.79999999999995C275.82089552238807,354.79999999999995,277.61194029850753,356.8,279.044776119403,358.8C280.4776119402986,360.8,281.5522388059702,362.8,282.9850746268657,366C284.41791044776124,369.2,286.20895522388065,373.59999999999997,287.2835820895523,376.59999999999997C288.3582089552239,379.59999999999997,288.7164179104478,381.2,289.0746268656717,383.59999999999997C289.4328358208956,386,289.79104477611946,389.20000000000005,289.6119402985075,392.6000000000001C289.4328358208956,396,288.7164179104478,399.6000000000001,288.3582089552239,403.20000000000005C288.00000000000006,406.8,288.00000000000006,410.3999999999999,287.10447761194035,413C286.20895522388065,415.5999999999999,284.41791044776124,417.2,281.91044776119406,419.2C279.4029850746269,421.2,276.17910447761193,423.59999999999997,272.95522388059703,425.6000000000001C269.73134328358213,427.59999999999997,266.5074626865672,429.2,263.2835820895523,430.79999999999995C260.0597014925374,432.3999999999999,256.83582089552243,434,252.17910447761196,436.3999999999999C247.5223880597015,438.79999999999995,241.43283582089555,442,236.59701492537314,444.8C231.76119402985077,447.59999999999997,228.179104477612,450,223.34328358208958,453.3999999999999C218.5074626865672,456.8,212.41791044776127,461.2,207.58208955223884,464.20000000000005C202.74626865671644,467.20000000000005,199.16417910447763,468.8,197.01492537313433,470.8C194.86567164179107,472.8,194.1492537313433,475.20000000000005,195.76119402985077,477C197.37313432835822,478.8,201.31343283582092,480,206.1492537313433,481.40000000000003C210.98507462686572,482.8,216.7164179104478,484.4000000000001,223.3432835820896,486.40000000000003C229.9701492537314,488.40000000000003,237.49253731343288,490.8,246.08955223880605,492.8C254.68656716417914,494.8,264.3582089552239,496.40000000000003,271.8805970149254,496.79999999999995C279.4029850746269,497.2,284.7761194029851,496.3999999999999,287.4626865671642,495.99999999999994L290.1492537313433,495.59999999999997" class="line-arm1" style="fill: none; stroke: rgb(59, 37, 26); stroke-width: 3px;"></path><path d="M277.2537313432836,272.40000000000003L277.97014925373134,276.6000000000001C278.68656716417917,280.8,280.11940298507466,289.20000000000005,280.6567164179105,294.6C281.19402985074635,300,280.83582089552243,302.40000000000003,279.9402985074627,306.40000000000003C279.044776119403,310.40000000000003,277.61194029850753,316,276.3582089552239,320.6C275.10447761194035,325.20000000000005,274.02985074626866,328.8,273.4925373134328,333.00000000000006C272.95522388059703,337.2,272.95522388059703,342,272.7761194029851,344.79999999999995C272.5970149253731,347.59999999999997,272.23880597014926,348.3999999999999,273.31343283582095,350.59999999999997C274.3880597014926,352.8,276.89552238805976,356.40000000000003,278.68656716417917,359.59999999999997C280.4776119402986,362.8,281.5522388059702,365.59999999999997,283.52238805970154,368.59999999999997C285.4925373134329,371.59999999999997,288.3582089552239,374.8,289.6119402985075,377.8C290.8656716417911,380.8,290.5074626865672,383.6000000000001,289.97014925373134,386.6000000000001C289.4328358208956,389.6000000000001,288.7164179104478,392.8,288.89552238805976,396C289.0746268656717,399.2,290.1492537313433,402.40000000000003,289.97014925373134,405.59999999999997C289.79104477611946,408.8,288.3582089552239,412,286.7462686567165,415.2C285.134328358209,418.3999999999999,283.3432835820896,421.59999999999997,282.4477611940299,423.2L281.5522388059702,424.79999999999995" class="line-arm2" style="fill: none; stroke: rgb(59, 37, 26); stroke-width: 3px;"></path><path d="M143.10447761194033,77.2C148.29850746268662,76.4,156.89552238805973,78.4,161.7313432835821,80.39999999999999C166.56716417910448,82.39999999999999,167.64179104477614,84.39999999999999,163.5223880597015,84.39999999999999C159.4029850746269,84.39999999999999,150.08955223880602,82.39999999999999,144.35820895522392,82.2C138.6268656716418,82,136.47761194029854,83.6,136.29850746268662,82.59999999999998C136.11940298507466,81.6,137.91044776119406,78,143.10447761194033,77.2" class="line-brow1"></path><path d="M189.67164179104483,78C193.43283582089555,76.39999999999999,200.95522388059703,74.8,205.79104477611943,75.8C210.6268656716418,76.80000000000001,212.77611940298507,80.40000000000002,212.05970149253733,81.4C211.34328358208958,82.40000000000002,207.76119402985077,80.80000000000001,203.28358208955228,80.4C198.80597014925374,80,193.43283582089555,80.80000000000001,190.38805970149255,81.4C187.34328358208958,82.00000000000001,186.6268656716418,82.40000000000002,186.26865671641795,81.80000000000001C185.91044776119406,81.2,185.91044776119406,79.60000000000001,189.67164179104483,78" class="line-brow2"></path><path d="M161.55223880597018,140.4C164.05970149253733,137.60000000000002,166.9253731343284,136,169.2537313432836,135.8C171.5820895522388,135.6,173.37313432835822,136.79999999999998,175.16417910447763,137.20000000000002C176.95522388059703,137.6,178.74626865671644,137.20000000000002,180.3582089552239,137C181.97014925373136,136.8,183.40298507462686,136.8,185.37313432835822,138C187.34328358208958,139.20000000000002,189.85074626865674,141.6,192,144C194.1492537313433,146.4,195.9402985074627,148.79999999999998,196.8358208955224,151.2C197.7313432835821,153.6,197.7313432835821,156,196.6567164179105,158C195.58208955223884,160,193.43283582089558,161.60000000000002,191.10447761194033,162.8C188.77611940298513,164.00000000000003,186.26865671641795,164.80000000000004,183.4029850746269,165.20000000000002C180.53731343283584,165.60000000000002,177.31343283582092,165.60000000000002,174.44776119402988,165.80000000000004C171.5820895522388,166.00000000000003,169.07462686567166,166.4,166.9253731343284,165.8C164.7761194029851,165.20000000000002,162.9850746268657,163.6,161.37313432835825,161.6C159.76119402985077,159.6,158.32835820895525,157.20000000000002,157.07462686567166,155.4C155.8208955223881,153.6,154.74626865671644,152.4,154.38805970149255,151.79999999999998C154.0298507462687,151.2,154.38805970149255,151.2,155.64179104477614,149.20000000000002C156.89552238805973,147.20000000000002,159.044776119403,143.20000000000002,161.55223880597018,140.4" class="line-lips" style="fill: rgb(100, 50, 29);"></path><path d="M154.74626865671644,150L156.17910447761196,150.20000000000002C157.6119402985075,150.4,160.47761194029854,150.79999999999998,162.80597014925377,151C165.134328358209,151.2,166.9253731343284,151.2,168.89552238805973,151C170.8656716417911,150.79999999999998,173.01492537313436,150.4,174.6268656716418,150.4C176.2388059701493,150.4,177.31343283582092,150.79999999999998,178.74626865671644,150.6C180.179104477612,150.4,181.9701492537314,149.6,183.58208955223884,149.20000000000002C185.19402985074632,148.8,186.6268656716418,148.8,188.2388059701493,148.79999999999998C189.85074626865674,148.8,191.64179104477614,148.8,193.07462686567166,149C194.5074626865672,149.20000000000002,195.5820895522388,149.6,196.11940298507466,149.79999999999998L196.65671641791047,150" class="line-lipline" style="fill: none; stroke: rgb(75, 32, 15); stroke-width: 1.5px;"></path><path d="M163.34328358208958,122.39999999999999L163.16417910447765,123.2C162.9850746268657,124,162.6268656716418,125.60000000000001,162.80597014925374,126.80000000000001C162.98507462686567,128,163.70149253731344,128.79999999999998,164.7761194029851,129.20000000000002C165.85074626865674,129.6,167.28358208955228,129.6,168.00000000000003,129.6C168.7164179104478,129.6,168.7164179104478,129.6,168.00000000000003,129.4C167.28358208955228,129.20000000000002,165.85074626865674,128.79999999999998,165.31343283582092,128.20000000000002C164.77611940298507,127.60000000000001,165.134328358209,126.8,165.85074626865674,126.19999999999999C166.56716417910448,125.60000000000001,167.64179104477614,125.2,168.7164179104478,125C169.79104477611943,124.8,170.86567164179107,124.8,171.5820895522388,125.39999999999999C172.29850746268662,126,172.65671641791047,127.2,173.19402985074626,128.20000000000002C173.7313432835821,129.20000000000002,174.44776119402988,130,175.34328358208958,130.20000000000002C176.2388059701493,130.4,177.31343283582092,130,178.20895522388062,129.6C179.10447761194033,129.20000000000002,179.8208955223881,128.79999999999998,180.53731343283584,128.20000000000002C181.2537313432836,127.60000000000001,181.97014925373136,126.8,182.68656716417914,126.19999999999999C183.4029850746269,125.60000000000001,184.11940298507466,125.2,184.65671641791047,125.2C185.19402985074626,125.2,185.55223880597018,125.60000000000001,185.55223880597018,126C185.55223880597018,126.39999999999999,185.19402985074626,126.8,185.19402985074626,127.19999999999999C185.19402985074626,127.60000000000001,185.55223880597018,128,186.08955223880602,128.20000000000002C186.6268656716418,128.4,187.34328358208958,128.4,187.88059701492537,127.8C188.41791044776122,127.2,188.77611940298507,126,188.95522388059703,124.60000000000001C189.134328358209,123.2,189.134328358209,121.60000000000001,188.95522388059703,120.19999999999999C188.77611940298507,118.8,188.41791044776122,117.60000000000001,187.70149253731347,116.2C186.98507462686567,114.8,185.91044776119406,113.2,184.8358208955224,111.39999999999999C183.76119402985077,109.59999999999998,182.6865671641791,107.59999999999998,181.97014925373136,105.2C181.2537313432836,102.8,180.89552238805973,100,180.89552238805973,97.60000000000001C180.89552238805973,95.2,181.2537313432836,93.2,181.97014925373136,91.39999999999999C182.6865671641791,89.60000000000001,183.76119402985077,88,185.19402985074626,86.59999999999998C186.6268656716418,85.2,188.41791044776122,84,189.31343283582092,83.4L190.20895522388062,82.80000000000001" class="line-nose" style="fill: none; stroke: rgb(50, 12, 12); stroke-width: 1.5px;"></path><path d="M130.0298507462687,147.6L132.35820895522392,151.4C134.68656716417914,155.2,139.34328358208958,162.79999999999998,144.53731343283584,168.79999999999998C149.7313432835821,174.79999999999998,155.46268656716418,179.19999999999996,161.37313432835822,182.39999999999998C167.28358208955225,185.6,173.37313432835822,187.6,178.74626865671644,188C184.11940298507466,188.4,188.77611940298507,187.20000000000002,192.3582089552239,184.79999999999998C195.9402985074627,182.4,198.44776119402988,178.79999999999998,201.49253731343285,175.20000000000002C204.53731343283584,171.6,208.11940298507466,168,210.62686567164178,165C213.134328358209,162,214.56716417910448,159.60000000000002,215.28358208955225,158.4L216.00000000000003,157.20000000000002" class="line-face" style="fill: none; stroke: rgb(50, 12, 12); stroke-width: 1.5px;"></path></g></g></g></svg>