<svg width="1608" height="971" viewBox="0 0 1608 971" fill="none" xmlns="http://www.w3.org/2000/svg">
<path d="M36.7051 225.026V80L611.295 81.9082L613 226.934L36.7051 225.026Z" fill="#A1B4D5"/>
<path d="M35 225.026L613 223.118L611.295 891H35V225.026Z" fill="#94AB9E"/>
<path d="M473.189 236.475L471.484 211.668L517.519 188.769L565.26 202.127V225.026L517.519 234.567L473.189 236.475Z" fill="#9C7372"/>
<path d="M38.4101 226.934L36.7051 118.165L128.776 144.88L135.596 165.871L150.941 169.687L159.466 184.953L176.516 196.402L174.811 202.127L193.566 205.943L195.271 211.668L210.617 215.485L214.027 225.026L38.4101 226.934Z" fill="#534747"/>
<path d="M162.024 880.823C161.171 878.915 157.761 878.278 149.804 864.285C141.848 850.291 129.344 822.94 117.693 794.316C106.042 765.693 95.2438 735.797 87.0029 706.219C78.762 676.642 73.0786 647.382 68.5319 619.077C63.9852 590.771 60.5752 563.42 61.7119 536.386C62.8486 509.353 68.5319 482.638 75.352 466.1C82.1721 449.562 90.1288 443.201 98.6539 439.066C107.179 434.932 116.272 433.024 127.355 427.935C138.438 422.846 151.509 414.577 166.854 406.308C182.2 398.039 199.818 389.77 211.753 382.455C223.688 375.14 229.94 368.78 233.918 364.009C237.897 359.238 239.602 356.058 241.307 349.061C243.012 342.064 244.717 331.251 243.864 322.028C243.012 312.805 239.602 305.172 236.76 299.765C233.918 294.358 231.645 291.178 229.94 287.362C228.235 283.545 227.098 279.093 224.257 270.505C221.415 261.918 216.868 249.197 216.3 241.882C215.732 234.567 219.142 232.659 222.552 232.341C225.962 232.023 229.372 233.295 233.634 224.708C237.897 216.121 243.012 197.675 257.22 185.907C271.429 174.14 294.731 169.051 313.202 167.461C331.673 165.871 345.313 167.779 357.816 177.638C370.32 187.497 381.686 205.307 389.359 214.531C397.031 223.754 401.01 224.39 403.851 226.616C406.693 228.842 408.398 232.659 407.83 240.61C407.262 248.561 404.42 260.646 401.862 268.915C399.305 277.184 397.031 281.637 394.474 285.135C391.916 288.634 389.075 291.178 386.517 301.991C383.96 312.805 381.686 331.887 383.107 347.153C384.528 362.419 389.643 373.868 402.715 385.318C415.787 396.767 436.815 408.216 455.002 415.213C473.189 422.21 488.534 424.755 499.616 427.935C510.699 431.115 517.519 434.932 525.76 444.791C534.001 454.65 543.663 470.552 550.199 485.818C556.734 501.084 560.144 515.714 563.27 530.662C566.396 545.609 569.238 560.875 568.385 572.007C567.533 583.138 562.986 590.135 567.249 609.217C571.511 628.3 584.583 659.468 591.971 683.002C599.36 706.537 601.065 722.439 602.77 739.931C604.475 757.424 606.18 776.506 606.748 791.772C607.317 807.038 606.748 818.487 606.464 828.664C606.18 838.842 606.18 847.747 602.486 853.153C598.792 858.56 591.403 860.468 583.446 862.377C575.49 864.285 566.965 866.193 558.439 868.419C549.914 870.646 541.389 873.19 531.159 873.508C520.929 873.826 508.994 871.918 502.174 872.236C495.354 872.554 493.649 875.098 492.796 878.597C491.944 882.095 491.944 886.547 436.531 888.456C381.118 890.364 270.292 889.728 215.732 887.82C161.171 885.911 162.876 882.731 162.024 880.823Z" fill="#99552B"/>
<path d="M249.264 205.307C245.285 212.304 244.148 218.665 242.159 223.118C240.17 227.57 237.328 230.115 235.055 230.751C232.782 231.387 231.077 230.115 228.519 225.98C225.962 221.845 222.552 214.849 219.426 203.081C216.3 191.314 213.458 174.776 212.89 160.146C212.322 145.516 214.027 132.795 218.005 122.935C221.983 113.076 228.235 106.079 238.465 100.036C248.695 93.9937 262.904 88.9051 273.986 86.6788C285.069 84.4525 293.026 85.0886 304.108 85.7247C315.191 86.3608 329.399 86.9969 338.777 90.4953C348.154 93.9937 352.701 100.355 357.816 107.987C362.931 115.62 368.615 124.525 374.582 127.706C380.55 130.886 386.801 128.342 392.769 128.342C398.736 128.342 404.42 130.886 408.682 135.339C412.945 139.791 415.787 146.152 416.639 152.831C417.492 159.51 416.355 166.507 414.65 173.504C412.945 180.5 410.672 187.497 408.398 194.812C406.125 202.127 403.852 209.76 401.578 215.485C399.305 221.209 397.031 225.026 395.042 226.934C393.053 228.842 391.348 228.842 389.075 225.026C386.801 221.209 383.96 213.576 379.981 205.944C376.003 198.311 370.888 190.678 364.068 185.271C357.248 179.864 348.723 176.684 338.208 176.048C327.694 175.412 315.191 177.32 305.529 178.592C295.867 179.864 289.047 180.5 282.227 181.773C275.407 183.045 268.587 184.953 266.03 185.271C263.472 185.589 265.177 184.317 262.619 187.497C260.062 190.678 253.242 198.311 249.264 205.307Z" fill="black"/>
<path d="M273.418 221.845C276.544 221.209 279.386 221.209 281.943 221.845C284.501 222.482 286.774 223.754 288.763 225.026C290.752 226.298 292.457 227.57 292.741 228.842C293.026 230.114 291.889 231.387 290.184 232.341C288.479 233.295 286.206 233.931 283.364 234.249C280.522 234.567 277.112 234.567 274.27 233.295C271.429 232.023 269.155 229.478 267.45 227.888C265.745 226.298 264.609 225.662 265.745 224.708C266.882 223.754 270.292 222.482 273.418 221.845Z" fill="black" stroke="black"/>
<path d="M341.334 226.934C342.471 225.662 344.744 224.39 348.154 223.118C351.564 221.846 356.111 220.573 359.521 219.937C362.931 219.301 365.205 219.301 366.625 219.619C368.046 219.937 368.615 220.573 368.33 221.846C368.046 223.118 366.91 225.026 366.057 226.616C365.205 228.206 364.636 229.478 363.784 230.751C362.931 232.023 361.795 233.295 358.953 233.931C356.111 234.567 351.564 234.567 348.723 234.567C345.881 234.567 344.744 234.567 343.608 233.931C342.471 233.295 341.334 232.023 340.766 230.751C340.198 229.478 340.198 228.206 341.334 226.934Z" fill="black" stroke="black"/>
<path d="M181.631 524.619L181.915 530.662C182.2 536.704 182.768 548.79 182.768 558.013C182.768 567.236 182.2 573.597 182.484 581.23C182.768 588.863 183.905 597.768 189.872 606.037C195.84 614.306 206.638 621.939 214.879 627.982C223.12 634.024 228.803 638.477 235.055 645.156C241.307 651.834 248.127 660.74 254.663 669.009C261.199 677.278 267.45 684.911 273.418 691.907C279.385 698.904 285.069 705.265 287.626 709.718C290.184 714.17 289.616 716.714 285.921 717.669C282.227 718.623 275.407 717.987 267.45 717.987C259.494 717.987 250.4 718.623 241.307 719.895C232.213 721.167 223.12 723.075 213.458 725.62C203.797 728.164 193.566 731.344 184.757 734.207C175.948 737.069 168.56 739.613 162.024 739.295C155.488 738.977 149.804 735.797 144.689 731.662C139.574 727.528 135.028 722.439 132.754 717.351C130.481 712.262 130.481 707.173 129.344 703.675C128.208 700.176 125.934 698.268 122.524 695.724C119.114 693.18 114.567 689.999 113.431 685.865C112.294 681.73 114.567 676.642 117.125 674.415C119.682 672.189 122.524 672.825 121.387 670.917C120.251 669.009 115.136 664.556 111.157 657.559C107.179 650.562 104.337 641.021 105.19 636.251C106.042 631.48 110.589 631.48 114.852 631.798C119.114 632.116 123.092 632.752 129.913 633.706C136.733 634.66 146.394 635.933 149.804 634.978C153.214 634.024 150.373 630.844 146.394 627.982C142.416 625.119 137.301 622.575 133.038 618.44C128.776 614.306 125.366 608.581 125.934 604.447C126.503 600.312 131.049 597.768 135.312 596.814C139.574 595.86 143.553 596.496 150.941 598.086C158.329 599.676 169.128 602.22 176.232 604.447C183.336 606.673 186.746 608.581 205.502 626.391C224.257 644.202 258.357 677.914 276.26 695.088C294.162 712.262 295.867 712.898 302.687 714.17C309.507 715.442 321.443 717.351 329.683 715.442C337.924 713.534 342.471 707.809 346.734 704.311C350.996 700.813 354.974 699.54 360.374 697.95C365.773 696.36 372.593 694.452 378.276 692.225C383.96 689.999 388.506 687.455 391.348 685.865C394.19 684.274 395.327 683.638 396.463 681.412C397.6 679.186 398.737 675.369 400.726 670.917C402.715 666.464 405.557 661.376 407.83 657.877C410.103 654.379 411.808 652.471 413.513 650.244C415.218 648.018 416.923 645.474 418.06 642.611C419.197 639.749 419.765 636.569 420.902 634.342C422.038 632.116 423.743 630.844 426.017 630.208C428.29 629.572 431.132 629.572 434.542 628.618C437.952 627.664 441.93 625.755 444.772 624.165C447.614 622.575 449.319 621.303 451.592 620.031C453.865 618.758 456.707 617.486 458.696 616.85C460.685 616.214 461.822 616.214 462.959 617.168C464.095 618.122 465.232 620.031 466.653 624.165C468.074 628.3 469.779 634.66 472.052 639.431C474.326 644.202 477.167 647.382 479.441 650.562C481.714 653.743 483.419 656.923 485.692 662.012C487.966 667.1 490.807 674.097 492.512 678.868C494.217 683.638 494.786 686.183 495.354 689.999C495.922 693.816 496.491 698.904 496.207 704.311C495.922 709.718 494.786 715.442 494.217 721.167C493.649 726.892 493.649 732.616 492.228 736.751C490.807 740.885 487.966 743.43 483.987 746.61C480.009 749.791 474.894 753.607 469.779 756.787C464.664 759.968 459.549 762.512 454.434 765.056C449.319 767.601 444.204 770.145 436.815 773.961C429.427 777.778 419.765 782.867 412.092 787.319C404.42 791.772 398.737 795.588 391.064 800.995C383.391 806.401 373.73 813.398 366.057 818.169C358.385 822.94 352.701 825.484 349.291 828.664C345.881 831.845 344.744 835.661 347.302 838.523C349.859 841.386 356.111 843.294 363.784 845.52C371.456 847.747 380.55 850.291 391.064 853.471C401.578 856.652 413.513 860.468 427.153 863.649C440.794 866.829 456.139 869.373 468.074 870.009C480.009 870.645 488.534 869.373 492.797 868.737L497.059 868.101" stroke="#3B251A" stroke-width="3"/>
<path d="M476.599 513.169L477.736 519.848C478.872 526.527 481.146 539.885 481.998 548.472C482.851 557.059 482.282 560.875 480.861 567.236C479.441 573.597 477.167 582.502 475.178 589.817C473.189 597.132 471.484 602.856 470.631 609.535C469.779 616.214 469.779 623.847 469.495 628.3C469.21 632.752 468.642 634.024 470.347 637.523C472.052 641.021 476.03 646.746 478.872 651.835C481.714 656.923 483.419 661.376 486.545 666.146C489.671 670.917 494.217 676.006 496.206 680.776C498.196 685.547 497.627 689.999 496.775 694.77C495.922 699.54 494.786 704.629 495.07 709.718C495.354 714.806 497.059 719.895 496.775 724.984C496.491 730.072 494.217 735.161 491.66 740.249C489.102 745.338 486.261 750.427 484.84 752.971L483.419 755.515" stroke="#3B251A" stroke-width="3"/>
<path d="M263.756 202.763C271.997 201.491 285.637 204.671 293.31 207.852C300.982 211.032 302.687 214.213 296.151 214.213C289.616 214.213 274.839 211.032 265.745 210.714C256.652 210.396 253.242 212.94 252.958 211.35C252.674 209.76 255.515 204.035 263.756 202.763Z" fill="black"/>
<path d="M337.64 204.035C343.608 201.491 355.543 198.947 363.215 200.537C370.888 202.127 374.298 207.852 373.161 209.442C372.025 211.032 366.341 208.488 359.237 207.852C352.133 207.216 343.608 208.488 338.777 209.442C333.946 210.396 332.809 211.032 332.241 210.078C331.673 209.124 331.673 206.58 337.64 204.035Z" fill="black"/>
<path d="M293.026 303.264C297.004 298.811 301.551 296.267 305.245 295.949C308.939 295.631 311.781 297.539 314.622 298.175C317.464 298.811 320.306 298.175 322.863 297.857C325.421 297.539 327.694 297.539 330.82 299.447C333.946 301.355 337.924 305.172 341.334 308.988C344.744 312.805 347.586 316.621 349.007 320.438C350.428 324.254 350.428 328.071 348.723 331.251C347.018 334.431 343.608 336.976 339.914 338.884C336.219 340.792 332.241 342.064 327.694 342.7C323.148 343.336 318.032 343.336 313.486 343.655C308.939 343.973 304.961 344.609 301.551 343.655C298.141 342.7 295.299 340.156 292.741 336.976C290.184 333.795 287.911 329.979 285.921 327.116C283.932 324.254 282.227 322.346 281.659 321.392C281.09 320.438 281.659 320.438 283.648 317.257C285.637 314.077 289.047 307.716 293.026 303.264Z" fill="#64321D"/>
<path d="M282.227 318.529L284.5 318.847C286.774 319.165 291.321 319.802 295.015 320.12C298.709 320.438 301.551 320.438 304.676 320.12C307.802 319.802 311.212 319.165 313.77 319.165C316.327 319.165 318.032 319.802 320.306 319.484C322.579 319.165 325.421 317.893 327.978 317.257C330.536 316.621 332.809 316.621 335.367 316.621C337.924 316.621 340.766 316.621 343.039 316.939C345.313 317.257 347.018 317.893 347.87 318.211L348.723 318.529" stroke="#4B200F" stroke-width="1.5"/>
<path d="M295.867 274.64L295.583 275.912C295.299 277.184 294.731 279.729 295.015 281.637C295.299 283.545 296.436 284.817 298.141 285.453C299.846 286.089 302.119 286.089 303.256 286.089C304.392 286.089 304.392 286.089 303.256 285.771C302.119 285.453 299.846 284.817 298.993 283.863C298.141 282.909 298.709 281.637 299.846 280.683C300.982 279.729 302.687 279.093 304.392 278.774C306.097 278.456 307.802 278.456 308.939 279.411C310.076 280.365 310.644 282.273 311.497 283.863C312.349 285.453 313.486 286.725 314.907 287.043C316.327 287.362 318.032 286.725 319.453 286.089C320.874 285.453 322.011 284.817 323.147 283.863C324.284 282.909 325.421 281.637 326.557 280.683C327.694 279.729 328.831 279.093 329.683 279.093C330.536 279.093 331.104 279.729 331.104 280.365C331.104 281.001 330.536 281.637 330.536 282.273C330.536 282.909 331.104 283.545 331.957 283.863C332.809 284.181 333.946 284.181 334.798 283.227C335.651 282.273 336.219 280.365 336.503 278.138C336.788 275.912 336.788 273.368 336.503 271.142C336.219 268.915 335.651 267.007 334.514 264.781C333.378 262.554 331.672 260.01 329.967 257.148C328.262 254.285 326.557 251.105 325.421 247.289C324.284 243.472 323.716 239.02 323.716 235.203C323.716 231.387 324.284 228.206 325.421 225.344C326.557 222.482 328.262 219.937 330.536 217.711C332.809 215.485 335.651 213.576 337.072 212.622L338.493 211.668" stroke="#320C0C" stroke-width="1.5"/>
<path d="M243.012 314.713L246.706 320.756C250.4 326.798 257.789 338.884 266.029 348.425C274.27 357.966 283.364 364.963 292.741 370.052C302.119 375.14 311.781 378.321 320.306 378.957C328.831 379.593 336.219 377.685 341.903 373.868C347.586 370.052 351.564 364.327 356.395 358.602C361.226 352.878 366.909 347.153 370.888 342.382C374.866 337.612 377.14 333.795 378.276 331.887L379.413 329.979" stroke="#320C0C" stroke-width="1.5"/>
<g filter="url(#filter0_d_1_26)">
<path d="M680.517 413.1V408.06H715.977C739.617 408.18 752.217 408.36 753.777 408.6C755.937 408.96 758.277 409.44 760.797 410.04C772.197 413.4 780.357 419.76 785.277 429.12C787.557 433.44 788.817 437.94 789.057 442.62C789.177 447.54 788.157 452.22 785.997 456.66C781.557 465.9 773.757 472.38 762.597 476.1C761.157 476.58 759.777 477 758.457 477.36C755.457 478.08 750.477 478.5 743.517 478.62C739.317 478.62 736.797 478.62 735.957 478.62H719.577V498.96C719.577 512.64 719.637 519.54 719.757 519.66C720.237 520.5 724.677 520.92 733.077 520.92H738.117V525.96V531H736.137L721.737 530.64C713.457 530.52 705.177 530.52 696.897 530.64L682.497 531H680.517V525.96V520.92H685.557C693.957 520.92 698.397 520.5 698.877 519.66V419.4C698.397 418.56 693.957 418.14 685.557 418.14H680.517V413.1ZM748.377 418.5C747.537 418.38 742.977 418.26 734.697 418.14C725.577 418.14 720.657 418.32 719.937 418.68C719.457 418.92 719.157 420.42 719.037 423.18C719.037 425.46 719.037 432.6 719.037 444.6V469.44H732.717C742.677 469.32 748.917 468.96 751.437 468.36C758.637 466.8 763.077 463.08 764.757 457.2C765.477 455.04 765.837 450.6 765.837 443.88C765.957 438 765.717 433.74 765.117 431.1C764.277 427.86 762.717 425.28 760.437 423.36C757.557 420.96 753.537 419.34 748.377 418.5ZM839.576 450.72C850.376 449.4 860.156 452.4 868.916 459.72C869.756 460.44 870.536 461.16 871.256 461.88C873.056 463.68 874.136 464.88 874.496 465.48C882.296 475.44 885.236 486.6 883.316 498.96C883.196 499.56 883.076 500.16 882.956 500.76C880.796 511.92 874.856 520.56 865.136 526.68C861.536 528.96 857.636 530.64 853.436 531.72C850.676 532.44 847.556 532.8 844.076 532.8C840.476 532.8 837.296 532.44 834.536 531.72C823.256 528.84 814.796 522.36 809.156 512.28C805.796 506.16 804.116 499.56 804.116 492.48C804.116 483.72 806.456 475.86 811.136 468.9C818.096 458.22 827.576 452.16 839.576 450.72ZM846.956 459C840.236 458.04 834.596 459.72 830.036 464.04C826.436 467.28 824.396 472.74 823.916 480.42C823.796 480.9 823.736 481.44 823.736 482.04C823.256 488.16 823.316 495.36 823.916 503.64C824.396 508.08 825.236 511.44 826.436 513.72C828.956 519.24 833.576 522.54 840.296 523.62C842.576 524.1 844.916 524.16 847.316 523.8C854.036 522.72 858.776 519.36 861.536 513.72C862.736 511.44 863.576 508.08 864.056 503.64C864.656 498.12 864.716 491.22 864.236 482.94C864.236 482.58 864.236 482.28 864.236 482.04C863.756 473.76 861.836 467.94 858.476 464.58C858.356 464.46 858.176 464.28 857.936 464.04C854.936 461.16 851.276 459.48 846.956 459ZM906.356 452.52C916.436 451.8 921.236 451.44 920.756 451.44H921.296V455.76V460.08L922.016 459.18C923.216 457.38 924.716 455.88 926.516 454.68C927.836 453.72 929.816 452.82 932.456 451.98C934.736 451.38 937.196 451.26 939.836 451.62C946.316 452.34 950.756 454.92 953.156 459.36C955.436 463.68 955.196 467.64 952.436 471.24C951.716 472.2 950.756 472.98 949.556 473.58C948.116 474.3 946.496 474.66 944.696 474.66C942.776 474.66 941.096 474.3 939.656 473.58C936.056 471.78 934.376 468.72 934.616 464.4C934.616 463.32 934.796 462.3 935.156 461.34C935.516 460.5 935.696 460.02 935.696 459.9L934.436 460.26C927.476 461.7 923.456 469.5 922.376 483.66V519.66C922.736 520.38 926.216 520.8 932.816 520.92H939.656V525.96V531H938.036C938.156 531 933.896 530.88 925.256 530.64C917.816 530.52 910.916 530.52 904.556 530.64C897.236 530.88 893.516 531 893.396 531H891.776V525.96V520.92H895.556C901.796 520.92 905.156 520.5 905.636 519.66V469.62C905.156 466.74 903.656 464.94 901.136 464.22C899.816 463.86 897.776 463.62 895.016 463.5H891.776V458.46C891.776 455.1 891.896 453.42 892.136 453.42L906.356 452.52ZM984.044 421.56V420.3H988.544H993.044V436.86V453.42H1004.74H1016.44V458.46V463.5H1004.74H993.044V487.44C993.044 503.76 993.104 512.28 993.224 513C993.944 519.24 996.164 522.78 999.884 523.62C1004.2 524.7 1007.32 522.6 1009.24 517.32C1009.96 515.28 1010.38 511.38 1010.5 505.62V498.42H1015H1019.5V505.62C1019.38 510.54 1019.2 513.48 1018.96 514.44C1017.28 522.24 1013.26 527.76 1006.9 531C1003.06 532.68 999.104 533.28 995.024 532.8C985.664 531.72 979.784 526.86 977.384 518.22C976.664 515.94 976.304 511.74 976.304 505.62C976.304 507.06 976.244 501.36 976.124 488.52V463.5H969.464H962.804V459.36V455.04H964.244C967.964 454.68 971.444 453 974.684 450C977.324 447.36 979.544 443.64 981.344 438.84C983.144 433.2 984.044 427.44 984.044 421.56ZM1050.05 410.94C1054.25 409.98 1057.91 411 1061.03 414C1063.31 416.52 1064.45 419.28 1064.45 422.28C1064.45 424.2 1064.03 426 1063.19 427.68C1061.03 431.76 1057.49 433.92 1052.57 434.16C1048.01 434.16 1044.59 432.12 1042.31 428.04C1041.35 426.24 1040.87 424.32 1040.87 422.28C1040.87 420.48 1041.29 418.74 1042.13 417.06C1043.69 413.7 1046.33 411.66 1050.05 410.94ZM1048.79 452.52C1058.87 451.8 1063.67 451.44 1063.19 451.44H1063.73V485.46C1063.73 508.14 1063.85 519.6 1064.09 519.84C1064.45 520.2 1064.75 520.38 1064.99 520.38C1065.71 520.74 1068.35 520.92 1072.91 520.92H1076.33V525.96V531H1074.89L1064.63 530.64C1058.63 530.52 1052.45 530.52 1046.09 530.64C1038.77 530.88 1035.05 531 1034.93 531H1033.31V525.96V520.92H1037.09C1043.33 520.92 1046.69 520.5 1047.17 519.66C1047.29 519.54 1047.35 511.26 1047.35 494.82C1047.35 477.54 1047.11 468.3 1046.63 467.1C1046.27 466.02 1045.55 465.24 1044.47 464.76C1042.79 463.92 1039.97 463.5 1036.01 463.5H1034.03V458.46V453.42H1034.39L1048.79 452.52ZM1097.98 452.52C1108.06 451.8 1112.86 451.44 1112.38 451.44H1113.1V457.56V463.68L1115.08 461.52C1120 456.48 1125.82 453.36 1132.54 452.16C1138.18 450.96 1143.7 451.14 1149.1 452.7C1151.98 453.3 1154.56 454.56 1156.84 456.48C1160.8 459.72 1163.14 464.82 1163.86 471.78C1163.98 472.62 1164.04 480.9 1164.04 496.62C1164.04 511.86 1164.1 519.54 1164.22 519.66C1164.7 520.5 1168.06 520.92 1174.3 520.92H1178.08V525.96V531H1176.64L1165.3 530.64C1158.7 530.52 1152.22 530.52 1145.86 530.64L1134.88 531H1133.26V525.96V520.92H1137.04C1143.4 520.92 1146.76 520.44 1147.12 519.48V495.18C1147 478.62 1146.64 469.44 1146.04 467.64C1144.96 463.68 1142.44 461.22 1138.48 460.26C1135.96 459.78 1133.26 459.84 1130.38 460.44C1125.46 461.52 1121.5 464.4 1118.5 469.08C1116.7 471.6 1115.44 474.6 1114.72 478.08C1114.48 479.16 1114.3 486.24 1114.18 499.32V519.48C1114.54 520.44 1117.96 520.92 1124.44 520.92H1128.22V525.96V531H1126.78L1115.44 530.64C1108.96 530.52 1102.48 530.52 1096 530.64L1084.66 531H1083.22V525.96V520.92H1087C1093.24 520.92 1096.6 520.5 1097.08 519.66V469.62C1096.6 466.74 1095.1 464.94 1092.58 464.22C1091.26 463.86 1089.22 463.62 1086.46 463.5H1083.22V458.46V453.42H1083.58L1097.98 452.52ZM1215.1 450.54C1215.58 450.3 1217.26 450.3 1220.14 450.54C1224.82 450.54 1228.96 451.14 1232.56 452.34C1238.2 454.26 1242.76 457.08 1246.24 460.8C1249.36 464.04 1251.4 467.64 1252.36 471.6C1252.6 472.56 1252.78 480.66 1252.9 495.9C1252.9 510.66 1253.02 518.52 1253.26 519.48C1254.1 521.76 1255.36 522.54 1257.04 521.82C1257.28 521.7 1257.58 521.46 1257.94 521.1C1258.78 520.26 1259.2 518.4 1259.2 515.52C1259.32 514.8 1259.38 513.54 1259.38 511.74V504.9H1263.88H1268.38V511.2C1268.38 515.76 1268.32 518.28 1268.2 518.76C1267.48 523.44 1264.72 527.1 1259.92 529.74C1255.24 532.02 1251.1 532.68 1247.5 531.72C1244.02 530.76 1241.38 528.54 1239.58 525.06C1239.1 524.34 1238.74 523.56 1238.5 522.72L1238.32 522L1236.7 523.62C1234.66 525.66 1232.14 527.4 1229.14 528.84C1223.38 531.84 1217.14 533.22 1210.42 532.98C1202.26 532.62 1195.78 529.86 1190.98 524.7C1189.18 522.9 1187.8 520.98 1186.84 518.94C1184.56 514.14 1184.2 509.34 1185.76 504.54C1187.92 498.06 1192.84 492.96 1200.52 489.24C1206.04 486.48 1212.4 484.56 1219.6 483.48C1224.16 482.64 1228.96 482.1 1234 481.86H1235.98V477.54C1235.86 474.54 1235.68 472.56 1235.44 471.6C1235.08 470.04 1234.3 468.3 1233.1 466.38C1230.22 462.18 1226.5 459.72 1221.94 459C1219.18 458.52 1215.22 458.64 1210.06 459.36C1209.1 459.6 1208.56 459.72 1208.44 459.72C1208.2 459.72 1208.38 460.02 1208.98 460.62C1210.9 463.14 1211.56 466.2 1210.96 469.8C1210 473.88 1207.42 476.46 1203.22 477.54C1199.38 478.5 1196.02 477.6 1193.14 474.84C1190.98 472.8 1189.96 470.04 1190.08 466.56C1190.2 464.76 1190.68 462.96 1191.52 461.16C1192.84 458.64 1195.24 456.36 1198.72 454.32C1202.92 452.28 1208.38 451.02 1215.1 450.54ZM1235.98 499.14V490.14H1234.9C1232.62 490.14 1230.1 490.44 1227.34 491.04C1223.26 491.76 1219.18 492.96 1215.1 494.64C1208.5 497.64 1204.6 502.02 1203.4 507.78C1202.8 511.5 1203.52 514.92 1205.56 518.04C1209.16 523.68 1214.56 525.66 1221.76 523.98C1222.12 523.86 1222.48 523.74 1222.84 523.62C1228.12 522.18 1231.9 519.12 1234.18 514.44C1234.42 513.84 1234.66 513.3 1234.9 512.82C1235.62 510.06 1235.98 505.5 1235.98 499.14ZM1286.92 452.52C1297 451.8 1301.8 451.44 1301.32 451.44H1301.86V455.76V460.08L1302.58 459.18C1303.78 457.38 1305.28 455.88 1307.08 454.68C1308.4 453.72 1310.38 452.82 1313.02 451.98C1315.3 451.38 1317.76 451.26 1320.4 451.62C1326.88 452.34 1331.32 454.92 1333.72 459.36C1336 463.68 1335.76 467.64 1333 471.24C1332.28 472.2 1331.32 472.98 1330.12 473.58C1328.68 474.3 1327.06 474.66 1325.26 474.66C1323.34 474.66 1321.66 474.3 1320.22 473.58C1316.62 471.78 1314.94 468.72 1315.18 464.4C1315.18 463.32 1315.36 462.3 1315.72 461.34C1316.08 460.5 1316.26 460.02 1316.26 459.9L1315 460.26C1308.04 461.7 1304.02 469.5 1302.94 483.66V519.66C1303.3 520.38 1306.78 520.8 1313.38 520.92H1320.22V525.96V531H1318.6C1318.72 531 1314.46 530.88 1305.82 530.64C1298.38 530.52 1291.48 530.52 1285.12 530.64C1277.8 530.88 1274.08 531 1273.96 531H1272.34V525.96V520.92H1276.12C1282.36 520.92 1285.72 520.5 1286.2 519.66V469.62C1285.72 466.74 1284.22 464.94 1281.7 464.22C1280.38 463.86 1278.34 463.62 1275.58 463.5H1272.34V458.46C1272.34 455.1 1272.46 453.42 1272.7 453.42L1286.92 452.52ZM1360.65 410.94C1364.85 409.98 1368.51 411 1371.63 414C1373.91 416.52 1375.05 419.28 1375.05 422.28C1375.05 424.2 1374.63 426 1373.79 427.68C1371.63 431.76 1368.09 433.92 1363.17 434.16C1358.61 434.16 1355.19 432.12 1352.91 428.04C1351.95 426.24 1351.47 424.32 1351.47 422.28C1351.47 420.48 1351.89 418.74 1352.73 417.06C1354.29 413.7 1356.93 411.66 1360.65 410.94ZM1359.39 452.52C1369.47 451.8 1374.27 451.44 1373.79 451.44H1374.33V485.46C1374.33 508.14 1374.45 519.6 1374.69 519.84C1375.05 520.2 1375.35 520.38 1375.59 520.38C1376.31 520.74 1378.95 520.92 1383.51 520.92H1386.93V525.96V531H1385.49L1375.23 530.64C1369.23 530.52 1363.05 530.52 1356.69 530.64C1349.37 530.88 1345.65 531 1345.53 531H1343.91V525.96V520.92H1347.69C1353.93 520.92 1357.29 520.5 1357.77 519.66C1357.89 519.54 1357.95 511.26 1357.95 494.82C1357.95 477.54 1357.71 468.3 1357.23 467.1C1356.87 466.02 1356.15 465.24 1355.07 464.76C1353.39 463.92 1350.57 463.5 1346.61 463.5H1344.63V458.46V453.42H1344.99L1359.39 452.52ZM1412.37 507.78C1415.01 507.06 1417.71 507.36 1420.47 508.68C1422.75 509.88 1424.49 511.62 1425.69 513.9C1427.25 517.38 1427.25 520.92 1425.69 524.52C1424.49 526.8 1422.75 528.54 1420.47 529.74C1416.87 531.3 1413.33 531.3 1409.85 529.74C1407.57 528.54 1405.83 526.8 1404.63 524.52C1403.07 520.92 1403.07 517.38 1404.63 513.9C1406.07 510.78 1408.65 508.74 1412.37 507.78ZM1466.07 410.94C1470.27 409.98 1473.93 411 1477.05 414C1479.33 416.52 1480.47 419.28 1480.47 422.28C1480.47 424.2 1480.05 426 1479.21 427.68C1477.05 431.76 1473.51 433.92 1468.59 434.16C1464.03 434.16 1460.61 432.12 1458.33 428.04C1457.37 426.24 1456.89 424.32 1456.89 422.28C1456.89 420.48 1457.31 418.74 1458.15 417.06C1459.71 413.7 1462.35 411.66 1466.07 410.94ZM1464.27 452.52C1475.07 451.8 1480.23 451.44 1479.75 451.44H1480.47V496.98C1480.47 528.42 1480.23 545.04 1479.75 546.84C1479.87 546.48 1479.75 546.9 1479.39 548.1C1478.07 552.06 1475.73 555.6 1472.37 558.72C1467.09 564 1460.31 567 1452.03 567.72C1449.39 567.96 1447.17 567.96 1445.37 567.72C1438.05 566.64 1432.95 563.28 1430.07 557.64C1429.11 555.6 1428.63 553.44 1428.63 551.16C1428.63 546.48 1430.73 543.3 1434.93 541.62C1436.25 541.02 1437.69 540.72 1439.25 540.72C1440.93 540.72 1442.61 541.14 1444.29 541.98C1447.89 543.66 1449.69 546.72 1449.69 551.16C1449.69 553.8 1448.91 556.08 1447.35 558C1446.99 558.48 1446.75 558.78 1446.63 558.9L1448.61 559.26C1452.81 559.74 1456.05 558.84 1458.33 556.56C1460.73 554.28 1462.47 550.92 1463.55 546.48L1463.91 544.14L1464.09 507.6C1464.09 483 1464.03 470.34 1463.91 469.62C1463.67 467.82 1463.01 466.44 1461.93 465.48C1460.61 464.28 1457.43 463.62 1452.39 463.5H1448.79V458.46C1448.79 455.1 1448.91 453.42 1449.15 453.42L1464.27 452.52ZM1514.07 407.16C1524.39 406.44 1529.31 406.08 1528.83 406.08H1529.55V462.78C1529.55 500.58 1529.61 519.54 1529.73 519.66C1530.21 520.5 1533.57 520.92 1539.81 520.92H1543.59V525.96V531H1541.97L1530.81 530.64C1524.45 530.52 1518.09 530.52 1511.73 530.64L1500.75 531H1499.13V525.96V520.92H1502.91C1509.15 520.92 1512.51 520.5 1512.99 519.66V424.26C1512.51 421.38 1511.01 419.58 1508.49 418.86C1507.17 418.5 1505.13 418.26 1502.37 418.14H1499.13V413.1V408.06H1499.49L1514.07 407.16Z" fill="url(#paint0_linear_1_26)"/>
</g>
<defs>
<filter id="filter0_d_1_26" x="673.517" y="406.08" width="877.069" height="178" filterUnits="userSpaceOnUse" color-interpolation-filters="sRGB">
<feFlood flood-opacity="0" result="BackgroundImageFix"/>
<feColorMatrix in="SourceAlpha" type="matrix" values="0 0 0 0 0 0 0 0 0 0 0 0 0 0 0 0 0 0 127 0" result="hardAlpha"/>
<feOffset dy="9"/>
<feGaussianBlur stdDeviation="3.5"/>
<feComposite in2="hardAlpha" operator="out"/>
<feColorMatrix type="matrix" values="0 0 0 0 1 0 0 0 0 0 0 0 0 0 0 0 0 0 0.25 0"/>
<feBlend mode="normal" in2="BackgroundImageFix" result="effect1_dropShadow_1_26"/>
<feBlend mode="normal" in="SourceGraphic" in2="effect1_dropShadow_1_26" result="shape"/>
</filter>
<linearGradient id="paint0_linear_1_26" x1="660" y1="485" x2="1491.5" y2="485" gradientUnits="userSpaceOnUse">
<stop offset="0.885502" stop-color="#4BB3FF"/>
<stop offset="0.892562" stop-color="#299F00"/>
</linearGradient>
</defs>
</svg>
